<svg xmlns="http://www.w3.org/2000/svg" width="792" height="220" viewBox="0 0 792 220" font-family="ui-sans-serif, system-ui, sans-serif"><defs><marker id="arrow" viewBox="0 0 10 10" refX="9" refY="5" markerWidth="7" markerHeight="7" orient="auto-start-reverse"><path d="M0,0 L10,5 L0,10 z" fill="#64748b"/></marker></defs><rect width="100%" height="100%" fill="#ffffff"/><line x1="188" y1="110" x2="284" y2="110" stroke="#64748b" stroke-width="1.5" marker-end="url(#arrow)"/><g transform="translate(20,89)"><rect width="168" height="42" rx="6" fill="#f8fafc" stroke="#334155" stroke-width="1.5"/><text x="10" y="18" font-size="12" font-weight="700" fill="#0f172a">harness</text><text x="10" y="33" font-size="10" font-family="ui-monospace, monospace" fill="#64748b">github.com/olesho/harne…</text></g><rect x="202" y="100" width="68" height="15" rx="3" fill="#ffffff" opacity="0.92"/><text x="236" y="111" font-size="10" fill="#475569" text-anchor="middle">depends on</text><line x1="604" y1="110" x2="508" y2="110" stroke="#64748b" stroke-width="1.5" stroke-dasharray="6 3" marker-end="url(#arrow)"/><g transform="translate(604,89)"><rect width="168" height="42" rx="6" fill="#f8fafc" stroke="#334155" stroke-width="1.5"/><text x="10" y="18" font-size="12" font-weight="700" fill="#0f172a">Store</text><text x="10" y="33" font-size="10" font-family="ui-monospace, monospace" fill="#64748b">memstore</text></g><rect x="522" y="100" width="68" height="15" rx="3" fill="#ffffff" opacity="0.92"/><text x="556" y="111" font-size="10" fill="#475569" text-anchor="middle">implements</text><g transform="translate(284,20)"><rect width="224" height="180" rx="8" fill="#fef3c7" stroke="#d97706" stroke-width="2" stroke-dasharray="6 3"/><text x="10" y="24" font-size="13" font-weight="700" fill="#92400e">interface Store</text><text x="10" y="40" font-size="10" font-family="ui-monospace, monospace" fill="#a16207">in pkg/chat</text><text x="10" y="50" font-size="10" fill="#92400e">Persists chat-level session</text><text x="10" y="65" font-size="10" fill="#92400e">metadata and turn records (not</text><text x="10" y="91" font-size="10" font-family="ui-monospace, monospace" fill="#78350f">AppendTurn(ctx context.Context,…</text><text x="10" y="106" font-size="10" font-family="ui-monospace, monospace" fill="#78350f">CreateSession(ctx context.Conte…</text><text x="10" y="121" font-size="10" font-family="ui-monospace, monospace" fill="#78350f">GetSession(ctx context.Context,…</text><text x="10" y="136" font-size="10" font-family="ui-monospace, monospace" fill="#78350f">ListTurns(ctx context.Context, …</text><text x="10" y="151" font-size="10" font-family="ui-monospace, monospace" fill="#78350f">UpdateSession(ctx context.Conte…</text><text x="10" y="166" font-size="10" font-family="ui-monospace, monospace" fill="#78350f">UpdateTurn(ctx context.Context,…</text></g></svg>